HIERARCHY
ROOT Hips
{
	OFFSET 0.000000 0.000000 0.000000 
	CHANNELS 6 Xposition Yposition Zposition Zrotation Yrotation Xrotation
	JOINT LeftUpLeg
	{
		OFFSET 1.363060 -1.794630 0.839290 
		CHANNELS 3 Zrotation Yrotation Xrotation
		JOINT LeftLeg
		{
			OFFSET 2.448110 -6.726130 0.000000 
			CHANNELS 3 Zrotation Yrotation Xrotation
			JOINT LeftFoot
			{
				OFFSET 2.562200 -7.039590 0.000000 
				CHANNELS 3 Zrotation Yrotation Xrotation
				JOINT LeftToeBase
				{
					OFFSET 0.157640 -0.433110 2.322550 
					CHANNELS 3 Zrotation Yrotation Xrotation
					End Site
					{
						OFFSET 0.000000 0.000000 0.000000 
					}
				}
			}
		}
	}
	JOINT RightUpLeg
	{
		OFFSET -1.305520 -1.794630 0.839290 
		CHANNELS 3 Zrotation Yrotation Xrotation
		JOINT RightLeg
		{
			OFFSET -2.542530 -6.985550 0.000000 
			CHANNELS 3 Zrotation Yrotation Xrotation
			JOINT RightFoot
			{
				OFFSET -2.568260 -7.056230 0.000000 
				CHANNELS 3 Zrotation Yrotation Xrotation
				JOINT RightToeBase
				{
					OFFSET -0.164730 -0.452590 2.363150 
					CHANNELS 3 Zrotation Yrotation Xrotation
					End Site
					{
						OFFSET 0.000000 0.000000 0.000000 
					}
				}
			}
		}
	}
	JOINT Spine
	{
		OFFSET 0.028270 2.035590 -0.193380 
		CHANNELS 3 Zrotation Yrotation Xrotation
		JOINT Spine1
		{
			OFFSET 0.056720 2.048850 -0.042750 
			CHANNELS 3 Zrotation Yrotation Xrotation
			JOINT Neck1
			{
				OFFSET -0.054170 1.746240 0.172020 
				CHANNELS 3 Zrotation Yrotation Xrotation
				JOINT Head
				{
					OFFSET 0.104070 1.761360 -0.123970 
					CHANNELS 3 Zrotation Yrotation Xrotation
					End Site
					{
						OFFSET 0.000000 0.000000 0.000000 
					}
				}
			}
			JOINT LeftArm
			{
				OFFSET 3.362410 1.200890 -0.311210 
				CHANNELS 3 Zrotation Yrotation Xrotation
				JOINT LeftForeArm
				{
					OFFSET 4.983000 -0.000000 -0.000000 
					CHANNELS 3 Zrotation Yrotation Xrotation
					JOINT LeftHand
					{
						OFFSET 3.483560 -0.000000 -0.000000 
						CHANNELS 3 Zrotation Yrotation Xrotation
						JOINT LeftHandIndex1
						{
							OFFSET 0.715260 -0.000000 -0.000000 
							CHANNELS 3 Zrotation Yrotation Xrotation
							End Site
							{
								OFFSET 0.000000 0.000000 0.000000 
							}
						}
					}
				}
			}
			JOINT RightArm
			{
				OFFSET -3.136600 1.374050 -0.404650 
				CHANNELS 3 Zrotation Yrotation Xrotation
				JOINT RightForeArm
				{
					OFFSET -5.241900 -0.000000 -0.000000 
					CHANNELS 3 Zrotation Yrotation Xrotation
					JOINT RightHand
					{
						OFFSET -3.444170 -0.000000 -0.000000 
						CHANNELS 3 Zrotation Yrotation Xrotation
						JOINT RightHandIndex1
						{
							OFFSET -0.622530 -0.000000 -0.000000 
							CHANNELS 3 Zrotation Yrotation Xrotation
							End Site
							{
								OFFSET 0.000000 0.000000 0.000000 
							}
						}
					}
				}
			}
		}
	}
}
MOTION
Frames: 16
Frame Time: 0.041667
9.354302 18.407539 -43.282687 4.564007 -53.106534 2.720657 -13.085800 -13.264831 -13.213081 -1.479725 9.981597 27.154436 -2.418843 9.388828 1.028050 0.517400 -4.610100 -12.799700 23.701129 9.294059 -6.782976 3.333063 -7.330442 23.270538 5.717668 -30.773896 -38.245778 -4.910200 -13.281900 40.433100 4.917674 2.580782 -0.421428 -4.092535 0.766176 -10.226815 -2.938394 17.307864 7.247778 -4.187800 8.593600 4.555600 -80.433810 2.038792 3.668475 33.822529 -34.428460 -11.452448 0.541458 1.092224 -2.510081 -7.125000 0.000000 0.000000 68.124575 -12.568075 21.632588 -21.133047 24.201072 -6.313350 1.185047 0.351589 12.265317 7.125000 0.000000 0.000000 
9.365164 18.405177 -43.329322 4.167826 -51.674082 3.016291 -13.270790 -12.128571 -13.239335 -1.448763 10.044907 27.368912 -3.026498 10.748276 -0.276259 0.515700 -4.602900 -12.779200 24.014547 8.881672 -6.868190 3.296581 -7.408370 23.487141 5.550694 -30.538682 -38.410127 -5.059200 -13.450100 41.077700 5.136948 2.495956 -0.592687 -3.980556 0.722676 -10.404108 -2.849060 16.878695 7.255634 -4.200300 8.389900 4.470000 -80.542722 2.562700 3.065547 33.951443 -34.548675 -11.517051 0.548515 1.077394 -3.474813 -7.125000 0.000000 0.000000 67.947989 -12.138029 20.955744 -21.067509 24.136186 -6.272731 1.190177 0.335884 12.997759 7.125000 0.000000 0.000000 
9.381221 18.403052 -43.383042 3.865273 -50.103557 3.351833 -13.421836 -10.650023 -13.620247 -1.397785 10.118636 27.614787 -3.162297 11.061123 -0.906830 0.259700 -3.278500 -9.055200 24.292757 8.384483 -7.136685 3.236334 -7.508625 23.701916 5.841154 -31.000416 -38.041096 -4.973000 -13.353400 40.706100 4.963671 2.336932 -0.703278 -4.031682 0.633871 -10.547248 -2.623805 16.408327 7.501505 -4.138100 8.167800 4.535900 -80.348577 2.951631 2.549704 34.033193 -34.628550 -11.550076 0.545766 1.072013 -4.124773 -7.125000 0.000000 0.000000 68.091176 -11.338622 19.698943 -20.846418 23.899682 -6.180162 1.184733 0.325952 14.050859 7.125000 0.000000 0.000000 
9.395743 18.409546 -43.432039 3.627364 -48.460119 3.723945 -13.618175 -9.630554 -13.876961 -1.346822 10.189862 27.876905 -3.269979 11.304816 -1.579920 0.057200 -1.543100 -4.244600 24.460720 7.908443 -7.575826 3.225426 -7.599917 23.912117 5.462435 -30.534255 -38.639187 -5.285000 -13.697800 42.040000 5.479745 2.248473 -0.863508 -3.630970 0.616233 -10.659138 -2.619961 15.943366 7.730348 -4.109700 7.933200 4.602800 -80.806528 3.366704 2.022136 33.924827 -34.540492 -11.484889 0.568565 1.071921 -4.085607 -7.125000 0.000000 0.000000 67.743662 -10.818645 18.539629 -20.799405 23.875188 -6.177867 1.175694 0.313722 14.651489 7.125000 0.000000 0.000000 
9.406133 18.414977 -43.469938 3.539890 -46.994634 4.022627 -13.919756 -8.313452 -14.240866 -1.277158 10.300437 28.214488 -3.581682 12.017307 -2.270869 0.081300 -1.839500 -5.062200 24.537816 7.640906 -7.922968 3.208048 -7.692839 24.123317 5.264718 -30.397036 -39.097435 -5.433200 -13.855700 42.662300 5.078875 2.203240 -1.133240 -3.748840 0.580975 -10.693224 -2.354318 15.395965 7.884848 -4.072700 7.680300 4.603100 -80.565943 3.922244 1.736643 34.161506 -34.719275 -11.573035 0.615620 1.006542 -5.015451 -7.125000 0.000000 0.000000 68.121968 -10.376760 17.275128 -20.845383 23.926637 -6.180198 1.181165 0.299506 15.352363 7.125000 0.000000 0.000000 
9.417231 18.412379 -43.506656 3.371891 -45.610860 4.324683 -14.147460 -6.844333 -14.639062 -1.183434 10.422495 28.588325 -3.983542 12.931869 -2.814710 0.170400 -2.659300 -7.331600 24.677334 7.595304 -8.077142 3.190891 -7.769104 24.280227 5.330836 -30.716876 -39.298727 -5.405700 -13.826600 42.547200 4.782993 2.342704 -1.497903 -3.796775 0.640094 -10.785727 -2.178219 14.651230 8.099224 -4.106100 7.342900 4.586800 -80.320929 4.502855 1.892941 33.764151 -34.390409 -11.375557 0.513995 1.105514 -4.728559 -7.125000 0.000000 0.000000 68.583977 -10.279583 15.878328 -20.984674 24.083893 -6.206331 1.193102 0.286591 15.751056 7.125000 0.000000 0.000000 
9.431281 18.408719 -43.541603 3.114933 -44.127993 4.560993 -14.300328 -5.859341 -14.784478 -1.082260 10.538989 28.990392 -4.397738 13.871335 -3.417162 0.192000 -2.821900 -7.783400 24.863285 7.409991 -8.169420 3.173322 -7.825646 24.415046 5.336408 -30.900395 -39.503193 -5.382400 -13.801900 42.449800 4.946433 2.145232 -1.468560 -3.703577 0.551021 -10.800768 -1.967604 14.264084 8.199321 -4.009700 7.148600 4.585500 -80.514070 4.837067 1.161975 33.433823 -34.105510 -11.162416 0.532342 1.119707 -4.433297 -7.125000 0.000000 0.000000 68.489507 -9.567019 15.049734 -21.111288 24.240421 -6.251053 1.195979 0.280705 15.862162 7.125000 0.000000 0.000000 
9.445567 18.407421 -43.569821 3.064968 -42.724070 4.592690 -14.583769 -5.197385 -14.718579 -0.988506 10.664583 29.460427 -4.676321 14.529704 -4.358661 0.120200 -2.235200 -6.156100 24.873779 7.070770 -8.206024 3.146927 -7.854406 24.527105 5.169018 -30.544743 -39.552599 -5.527300 -13.954100 43.053700 4.977866 1.957324 -1.432668 -3.629554 0.474647 -10.829240 -1.698273 13.892814 8.183480 -3.901500 6.961300 4.515500 -80.708766 5.190574 0.441313 33.140071 -33.837343 -10.959752 0.533467 1.129028 -4.411759 -7.125000 0.000000 0.000000 68.525583 -8.805275 13.746408 -21.152542 24.302925 -6.263465 1.193510 0.274920 16.370760 7.125000 0.000000 0.000000 
9.461742 18.409900 -43.595677 3.050102 -41.355251 4.687269 -14.844156 -4.659665 -14.707219 -0.900307 10.791825 29.934675 -4.767321 14.781558 -5.286145 0.081500 -1.840900 -5.066300 24.870175 6.795415 -8.281357 3.129216 -7.870449 24.563401 5.297409 -30.749495 -39.421893 -5.561200 -13.989200 43.194100 4.928063 1.976665 -1.409996 -3.519513 0.507086 -10.785198 -1.551234 13.289594 8.275888 -3.862500 6.662800 4.508100 -80.714669 5.368734 0.232663 32.657070 -33.374287 -10.634864 0.559394 1.133488 -4.344001 -7.125000 0.000000 0.000000 68.719888 -8.310540 12.060285 -21.282526 24.469484 -6.317302 1.189154 0.274045 16.572813 7.125000 0.000000 0.000000 
9.482521 18.415331 -43.620943 2.855696 -39.820495 5.045352 -14.896410 -4.320009 -14.818059 -0.815694 10.893801 30.301389 -4.697210 14.646798 -5.620469 0.073000 -1.743100 -4.796200 25.008113 6.695745 -8.438569 3.141123 -7.881958 24.499978 5.764256 -31.799066 -39.362288 -5.356100 -13.773900 42.339200 5.186000 1.729750 -1.687544 -3.424472 0.384118 -10.864275 -1.336882 12.911028 8.341493 -3.754100 6.474900 4.444800 -81.096951 5.820687 -0.601354 32.182263 -32.940302 -10.336798 0.578747 1.149426 -3.958885 -7.125000 0.000000 0.000000 68.495032 -7.881144 11.641249 -21.554947 24.791749 -6.429008 1.191445 0.279306 15.789477 7.125000 0.000000 0.000000 
9.506370 18.421234 -43.644320 2.648454 -38.313762 5.374744 -14.856896 -4.165975 -14.866872 -0.751974 10.966815 30.561736 -4.612426 14.469791 -5.789388 0.029800 -1.113900 -3.062300 25.133592 6.868171 -8.456049 3.179318 -7.872233 24.430621 5.808297 -32.206848 -39.784346 -5.400900 -13.821500 42.527000 5.010583 1.667721 -1.753877 -3.541090 0.341871 -10.843335 -1.100110 12.339507 8.490058 -3.684200 6.197800 4.472600 -80.963179 5.843657 -0.994991 31.434680 -32.231657 -9.878867 0.571596 1.191095 -3.367382 -7.125000 0.000000 0.000000 68.794293 -7.402810 10.485189 -21.798505 25.098919 -6.543325 1.169000 0.318254 14.820205 7.125000 0.000000 0.000000 
9.528567 18.433985 -43.665454 2.503289 -36.933468 5.560453 -14.898675 -4.039496 -14.825277 -0.714024 11.014272 30.705460 -5.044897 15.459708 -6.035727 0.072400 -1.735900 -4.776400 25.156981 6.847383 -8.437039 3.197050 -7.862303 24.417369 5.616583 -31.996979 -40.104650 -5.494100 -13.919500 42.916100 5.081716 1.614901 -1.738060 -3.516139 0.323959 -10.834242 -0.930132 11.878463 8.363021 -3.622400 5.956700 4.375000 -80.988460 5.753931 -1.525760 30.506172 -31.320605 -9.314224 0.568289 1.233699 -2.629654 -7.125000 0.000000 0.000000 68.847703 -6.941004 9.372323 -22.059680 25.447129 -6.694171 1.117604 0.363426 14.055008 7.125000 0.000000 0.000000 
9.551707 18.440715 -43.683164 2.455917 -35.609446 5.632742 -15.042295 -3.851222 -14.772461 -0.674979 11.041015 30.720575 -5.730816 17.027610 -5.694693 0.231300 -3.095200 -8.543800 25.129261 6.057356 -8.700548 3.137066 -7.895250 24.511584 5.790914 -31.944943 -39.488050 -5.303400 -13.717500 42.117500 4.640102 1.788422 -1.660633 -3.651132 0.412641 -10.826991 -1.014919 11.134667 8.293652 -3.739600 5.580000 4.356000 -80.769023 5.960155 -1.304462 30.108185 -30.912997 -9.076971 0.588780 1.244903 -2.061141 -7.125000 0.000000 0.000000 69.430862 -6.662737 7.664097 -22.584137 26.043434 -6.900531 1.118240 0.367529 13.817682 7.125000 0.000000 0.000000 
9.578154 18.439416 -43.696505 2.383525 -34.253055 5.772908 -15.130861 -3.756511 -14.662542 -0.654442 11.020657 30.625961 -6.030440 17.717815 -5.024124 0.243200 -3.173500 -8.762200 25.167168 5.612213 -8.927492 3.091080 -7.943843 24.594812 6.171457 -32.481958 -39.011466 -5.033800 -13.421800 40.968600 4.137759 1.916924 -1.651432 -3.873735 0.465807 -10.806721 -0.953762 10.440454 8.268952 -3.793100 5.235200 4.337000 -80.417539 6.099065 -1.154359 29.454167 -30.260577 -8.710287 0.643524 1.266164 -1.484121 -7.125000 0.000000 0.000000 70.062273 -6.391522 6.251432 -23.032342 26.556720 -7.106326 1.113833 0.388850 12.668748 7.125000 0.000000 0.000000 
9.605663 18.440597 -43.708311 2.234153 -32.923173 6.064521 -15.156590 -3.749092 -14.559601 -0.676587 10.952731 30.481267 -5.915250 17.437139 -4.697095 0.132500 -2.346400 -6.464100 25.160384 5.602428 -9.120933 3.077892 -8.001548 24.664585 6.383253 -32.904046 -38.932759 -4.906300 -13.277500 40.416200 4.954903 1.486227 -1.877342 -3.624125 0.270123 -10.827349 -0.499236 10.509371 7.872508 -3.497800 5.243400 4.028300 -81.554928 6.796196 -2.839273 28.952540 -29.778746 -8.430242 0.711206 1.268843 -0.574456 -7.125000 0.000000 0.000000 69.224267 -5.926012 7.062100 -23.433567 27.028132 -7.322526 1.083876 0.426518 10.988474 7.125000 0.000000 0.000000 
9.632346 18.452521 -43.719528 2.021709 -31.717362 6.543932 -15.139395 -3.572506 -14.620406 -0.713406 10.873214 30.273289 -5.638133 16.774576 -4.214543 0.083500 -1.863600 -5.128900 25.136289 5.617167 -9.362270 3.082601 -8.064454 24.760420 6.089611 -32.378742 -39.143572 -5.133800 -13.532900 41.397400 6.512347 1.911147 -3.476801 -2.600702 0.488592 -12.194505 -0.514622 9.749597 9.197758 -3.397000 4.919900 4.430200 -83.005295 7.897367 -2.864961 28.473087 -29.262138 -8.166254 0.759882 1.252328 0.651200 -7.125000 0.000000 0.000000 68.429415 -7.169388 6.897783 -24.027808 27.750845 -7.592725 1.056213 0.448623 9.313881 7.125000 0.000000 0.000000 
